<svg width="1116" height="728" viewBox="0 0 1116 728" fill="none" xmlns="http://www.w3.org/2000/svg">
<g opacity="0.8">
<path d="M561.58 656.231C864.193 656.231 1109.51 640.596 1109.51 621.309C1109.51 602.023 864.193 586.388 561.58 586.388C258.968 586.388 13.6517 602.023 13.6517 621.309C13.6517 640.596 258.968 656.231 561.58 656.231Z" fill="#F2F2F2"/>
<path d="M540.58 239.01C451.307 239.01 387.21 294.149 387.21 422.808C387.21 568.621 451.307 607.218 540.58 607.218C629.852 607.218 697.767 564.945 697.767 422.808C697.767 270.868 629.852 239.01 540.58 239.01ZM541.166 558.818C479.334 558.818 447.031 523.895 447.031 422.902C447.031 333.79 480.657 286.797 542.489 286.797C604.321 286.797 637.947 317.665 637.947 422.902C637.947 521.349 602.998 558.818 541.166 558.818Z" fill="#2F2E41"/>
<path d="M333.754 505.517H296.844V400.877C296.844 395.32 294.55 389.989 290.468 386.059C286.386 382.129 280.849 379.922 275.076 379.922H266.427C263.569 379.922 260.738 380.464 258.097 381.517C255.456 382.57 253.057 384.113 251.035 386.059C249.014 388.005 247.411 390.315 246.317 392.858C245.223 395.4 244.66 398.125 244.66 400.877V505.517H140.548C138.406 505.517 136.301 504.984 134.436 503.97C132.571 502.955 131.01 501.494 129.905 499.728C128.799 497.962 128.187 495.951 128.127 493.89C128.066 491.829 128.56 489.788 129.561 487.965L239.752 287.184C241.125 284.681 241.958 281.936 242.199 279.114C242.441 276.293 242.086 273.453 241.156 270.768C240.226 268.082 238.74 265.605 236.788 263.487C234.837 261.37 232.459 259.654 229.8 258.446L223.295 255.488C218.245 253.192 212.47 252.853 207.167 254.541C201.863 256.23 197.437 259.816 194.804 264.558L60.4118 506.591C58.1233 510.712 56.926 515.314 56.926 519.987V519.987C56.926 523.719 57.6895 527.414 59.1728 530.861C60.6562 534.309 62.8303 537.441 65.5712 540.08C68.312 542.719 71.5658 544.812 75.1469 546.24C78.728 547.668 82.5662 548.403 86.4423 548.403H244.66V614.57C244.66 617.869 245.335 621.135 246.646 624.183C247.957 627.23 249.879 629.999 252.302 632.332C254.725 634.664 257.601 636.515 260.767 637.777C263.932 639.039 267.325 639.689 270.752 639.689H270.752C274.178 639.689 277.571 639.039 280.737 637.777C283.902 636.515 286.779 634.664 289.201 632.332C291.624 629.999 293.546 627.23 294.857 624.183C296.169 621.135 296.844 617.869 296.844 614.57V548.403H333.754C339.661 548.403 345.327 546.144 349.504 542.122C353.681 538.101 356.027 532.647 356.027 526.96V526.96C356.028 521.273 353.681 515.819 349.504 511.797C345.327 507.776 339.661 505.517 333.754 505.517V505.517Z" fill="#141E61"/>
<path d="M1017.23 505.517H980.322V400.877C980.322 395.32 978.029 389.989 973.947 386.059C969.864 382.129 964.328 379.922 958.555 379.922H949.906C947.047 379.922 944.217 380.464 941.576 381.517C938.935 382.57 936.535 384.113 934.514 386.059C932.493 388.005 930.889 390.315 929.796 392.858C928.702 395.4 928.139 398.125 928.139 400.877V505.517H824.027C821.885 505.517 819.78 504.984 817.915 503.97C816.05 502.955 814.489 501.494 813.384 499.728C812.278 497.962 811.666 495.951 811.605 493.89C811.545 491.829 812.039 489.788 813.04 487.965L923.23 287.184C924.604 284.681 925.437 281.936 925.678 279.114C925.919 276.293 925.564 273.453 924.634 270.768C923.704 268.082 922.219 265.605 920.267 263.487C918.315 261.37 915.938 259.654 913.279 258.446L906.774 255.488C901.723 253.192 895.949 252.853 890.645 254.541C885.342 256.23 880.916 259.816 878.283 264.558L743.891 506.591C741.602 510.712 740.405 515.314 740.405 519.987V519.987C740.405 527.523 743.515 534.751 749.05 540.08C754.586 545.409 762.093 548.403 769.921 548.403H928.139V614.57C928.139 621.232 930.888 627.621 935.781 632.332C940.674 637.043 947.31 639.689 954.23 639.689V639.689C961.15 639.689 967.787 637.043 972.68 632.332C977.573 627.621 980.322 621.232 980.322 614.57V548.403H1017.23C1023.14 548.403 1028.81 546.144 1032.98 542.122C1037.16 538.101 1039.51 532.647 1039.51 526.96V526.96C1039.51 521.273 1037.16 515.819 1032.98 511.797C1028.81 507.776 1023.14 505.517 1017.23 505.517Z" fill="#141E61"/>
<path d="M343.936 493.264H307.026V388.624C307.026 385.872 306.463 383.147 305.369 380.605C304.275 378.062 302.672 375.752 300.65 373.806C298.629 371.86 296.229 370.317 293.588 369.263C290.947 368.21 288.117 367.668 285.258 367.668H276.61C270.836 367.668 265.3 369.876 261.218 373.806C257.135 377.736 254.842 383.066 254.842 388.624V493.264H150.73C148.589 493.264 146.483 492.731 144.618 491.716C142.754 490.702 141.193 489.241 140.087 487.475C138.982 485.709 138.369 483.698 138.309 481.637C138.248 479.576 138.743 477.535 139.743 475.712L249.934 274.931C251.308 272.428 252.14 269.683 252.382 266.861C252.623 264.04 252.268 261.2 251.338 258.514C250.408 255.828 248.922 253.352 246.97 251.234C245.019 249.116 242.642 247.401 239.982 246.192L233.478 243.235C228.427 240.939 222.652 240.6 217.349 242.288C212.046 243.976 207.619 247.563 204.986 252.305L70.594 494.338C68.3054 498.459 67.1082 503.06 67.1082 507.734V507.734C67.1082 515.27 70.2179 522.498 75.7533 527.827C81.2887 533.156 88.7962 536.15 96.6244 536.15H254.842V602.317C254.842 605.616 255.517 608.882 256.828 611.93C258.139 614.977 260.061 617.746 262.484 620.079C264.907 622.411 267.783 624.262 270.949 625.524C274.115 626.786 277.507 627.436 280.934 627.436H280.934C287.854 627.436 294.49 624.789 299.384 620.079C304.277 615.368 307.026 608.979 307.026 602.317V536.15H343.936C346.861 536.15 349.758 535.595 352.46 534.517C355.162 533.44 357.618 531.86 359.686 529.869C361.754 527.878 363.395 525.514 364.514 522.913C365.634 520.311 366.21 517.523 366.21 514.707V514.707C366.21 511.891 365.634 509.102 364.514 506.501C363.395 503.899 361.754 501.535 359.686 499.544C357.618 497.553 355.162 495.973 352.46 494.896C349.758 493.818 346.861 493.264 343.936 493.264V493.264Z" stroke="#3F3D56" stroke-miterlimit="10"/>
<path d="M1036.32 493.264H999.414V388.624C999.414 383.066 997.121 377.736 993.038 373.806C988.956 369.876 983.42 367.668 977.646 367.668H968.998C966.139 367.668 963.309 368.21 960.668 369.263C958.027 370.317 955.627 371.86 953.606 373.806C951.584 375.752 949.981 378.062 948.887 380.605C947.793 383.147 947.23 385.872 947.23 388.624V493.264H843.119C840.977 493.264 838.871 492.731 837.007 491.716C835.142 490.702 833.581 489.241 832.475 487.475C831.37 485.709 830.757 483.698 830.697 481.637C830.637 479.576 831.131 477.535 832.131 475.712L942.322 274.931C943.696 272.428 944.528 269.683 944.77 266.861C945.011 264.04 944.656 261.2 943.726 258.514C942.796 255.828 941.31 253.352 939.359 251.234C937.407 249.116 935.03 247.401 932.371 246.192L925.866 243.235C920.815 240.939 915.04 240.6 909.737 242.288C904.434 243.976 900.007 247.563 897.374 252.305L762.982 494.338C760.694 498.459 759.496 503.06 759.496 507.734C759.496 515.27 762.606 522.498 768.141 527.827C773.677 533.156 781.184 536.15 789.013 536.15H947.23V602.317C947.23 608.979 949.979 615.368 954.872 620.079C959.766 624.789 966.402 627.436 973.322 627.436V627.436C980.242 627.436 986.879 624.789 991.772 620.079C996.665 615.368 999.414 608.979 999.414 602.317V536.15H1036.32C1039.25 536.15 1042.15 535.595 1044.85 534.517C1047.55 533.44 1050.01 531.86 1052.07 529.869C1054.14 527.878 1055.78 525.514 1056.9 522.913C1058.02 520.311 1058.6 517.523 1058.6 514.707V514.707C1058.6 509.02 1056.25 503.565 1052.07 499.544C1047.9 495.523 1042.23 493.264 1036.32 493.264V493.264Z" stroke="#3F3D56" stroke-miterlimit="10"/>
<path d="M560.944 227.982C471.671 227.982 407.575 283.121 407.575 411.78C407.575 557.593 471.671 596.19 560.944 596.19C650.216 596.19 718.131 553.917 718.131 411.78C718.131 259.84 650.216 227.982 560.944 227.982ZM561.531 547.79C499.698 547.79 467.395 512.867 467.395 411.874C467.395 322.762 501.021 275.769 562.853 275.769C624.685 275.769 658.311 306.637 658.311 411.874C658.311 510.321 623.363 547.79 561.531 547.79V547.79Z" stroke="#3F3D56" stroke-miterlimit="10"/>
<path d="M489.386 103.152C496.787 103.152 502.787 97.3755 502.787 90.2504C502.787 83.1253 496.787 77.3492 489.386 77.3492C481.985 77.3492 475.985 83.1253 475.985 90.2504C475.985 97.3755 481.985 103.152 489.386 103.152Z" fill="#2F2E41"/>
<path d="M522.071 165.77C542.83 165.77 559.659 144.779 559.659 118.885C559.659 92.991 542.83 72 522.071 72C501.312 72 484.483 92.991 484.483 118.885C484.483 144.779 501.312 165.77 522.071 165.77Z" fill="#2F2E41"/>
<path opacity="0.1" d="M522.071 151.61C503.242 151.61 487.646 134.339 484.91 111.805C484.625 114.155 484.483 116.519 484.484 118.885C484.484 144.779 501.312 165.77 522.071 165.77C542.83 165.77 559.659 144.779 559.659 118.885C559.66 116.519 559.517 114.155 559.233 111.805C556.496 134.339 540.901 151.61 522.071 151.61Z" fill="black"/>
<path d="M598.558 256.189C597.751 259.382 594.27 261.94 590.415 263.727C582.311 267.483 572.315 268.605 562.619 268.981C560.146 269.126 557.664 269.081 555.198 268.849C550.419 268.404 545.936 266.42 542.473 263.217C542.226 263.062 542.024 262.849 541.885 262.599C541.747 262.348 541.676 262.067 541.681 261.783C541.685 261.499 541.765 261.221 541.911 260.975C542.058 260.728 542.267 260.521 542.519 260.374C547.681 254.915 556.294 251.567 564.972 249.157C571.552 247.33 583.026 242.597 590.203 243.235C597.154 243.854 599.577 252.157 598.558 256.189Z" fill="#3F3D56"/>
<path opacity="0.1" d="M598.558 256.189C597.751 259.382 594.27 261.94 590.415 263.727C582.311 267.483 572.315 268.605 562.619 268.981C560.146 269.126 557.664 269.081 555.198 268.849C550.419 268.404 545.936 266.42 542.473 263.217C542.226 263.062 542.024 262.849 541.885 262.599C541.747 262.348 541.676 262.067 541.681 261.783C541.685 261.499 541.765 261.221 541.911 260.975C542.058 260.728 542.267 260.521 542.519 260.374C547.681 254.915 556.294 251.567 564.972 249.157C571.552 247.33 583.026 242.597 590.203 243.235C597.154 243.854 599.577 252.157 598.558 256.189Z" fill="black"/>
<path d="M495.517 232.321C493.044 236.989 492.596 242.411 494.272 247.396C495.978 252.344 499.169 256.693 503.444 259.893C513.929 267.985 528.36 269.098 541.798 268.986C553.575 268.887 565.336 268.111 577.017 266.662C580.931 266.328 584.777 265.468 588.444 264.108C592.83 262.281 596.684 258.93 598.246 254.582C599.807 250.234 598.699 244.909 594.99 242.008C591.732 239.458 587.239 239.107 583.047 238.865L559.066 237.477C561.435 235.169 564.59 233.863 567.475 232.185C571.303 229.959 573.846 226.22 576.629 222.85C580.918 217.916 585.584 213.297 590.588 209.033C591.369 213.344 594.201 216.883 597.535 219.857C600.868 222.831 604.711 225.226 608.175 228.057C616.567 234.916 622.609 244.224 631.435 250.558C637.506 249.022 643.181 246.294 648.105 242.546L644.675 236.564C644.389 235.949 643.944 235.414 643.382 235.011C642.411 234.436 641.159 234.733 640.032 234.57C637.019 234.135 635.703 230.786 634.521 228.083C631.275 220.661 625.06 214.903 619.752 208.679C615.835 204.084 612.359 199.157 609.369 193.956C607.586 190.854 605.954 187.625 603.534 184.953C601.115 182.281 597.724 180.18 594.042 180.172C590.788 180.166 587.788 181.756 584.99 183.355C576.47 188.227 568.273 193.604 560.445 199.454C556.348 202.516 552.277 205.751 547.472 207.628C545.449 208.419 543.317 208.959 541.375 209.92C537.975 211.605 535.395 214.455 532.618 216.985C522.711 226.008 509.147 231.854 495.517 232.321Z" fill="#3F3D56"/>
<path d="M545.663 168.098C545.552 170.856 544.942 173.575 543.862 176.131C543.315 177.407 542.5 178.56 541.469 179.518C540.439 180.477 539.214 181.221 537.871 181.704C535.964 182.196 533.966 182.258 532.03 181.887C530.342 181.717 528.716 181.183 527.271 180.326C525.023 178.837 523.901 176.182 523.493 173.583C523.084 170.987 523.267 168.334 523.006 165.719C522.751 163.607 522.334 161.516 521.757 159.464C521.581 158.781 521.401 158.101 521.225 157.422C521.051 156.742 520.881 156.062 520.724 155.383C520.581 154.744 520.447 154.102 520.332 153.457C520.237 152.912 520.153 152.365 520.09 151.814C520.033 150.182 519.751 148.564 519.25 147.003C518.781 145.991 518.193 145.033 517.498 144.149C517.201 143.74 516.913 143.331 516.649 142.906C515.883 141.802 515.527 140.482 515.639 139.159C515.67 138.954 515.722 138.753 515.792 138.558C515.818 138.482 515.848 138.407 515.881 138.334C516.175 138.257 516.445 138.112 516.667 137.912C516.89 137.712 517.059 137.463 517.159 137.186C517.271 136.59 517.218 135.977 517.005 135.408C516.761 134.612 516.426 133.845 516.008 133.12C515.734 132.642 514.802 131.78 514.795 131.232C514.782 130.131 517.018 129.243 517.923 128.809C520.687 127.477 523.769 126.875 526.853 127.066C528.83 127.195 530.975 127.78 532.066 129.376C533.047 130.814 532.916 132.676 533.334 134.347C533.378 134.59 533.485 134.818 533.645 135.011C533.858 135.198 534.127 135.317 534.413 135.351C534.897 135.444 535.393 135.463 535.884 135.408H535.887C536.017 135.398 536.145 135.38 536.273 135.354C537.036 135.219 537.758 134.918 538.384 134.476C538.789 134.372 539.198 134.287 539.61 134.221C539.626 134.22 539.643 134.217 539.659 134.212C541.296 139.187 541.509 144.52 542.849 149.586C543.512 152.107 544.464 154.596 544.598 157.189C544.607 157.302 544.611 157.418 544.614 157.535C544.634 158.369 544.565 159.209 544.601 160.039C544.613 160.414 544.657 160.786 544.732 161.153C544.878 161.744 545.06 162.326 545.277 162.897L545.287 162.925C545.349 163.107 545.408 163.293 545.457 163.479C545.493 163.614 545.526 163.746 545.552 163.881L545.555 163.891C545.797 165.281 545.834 166.698 545.663 168.098V168.098Z" fill="#FBBEBE"/>
<path d="M522.725 135.562C533.375 135.562 542.009 127.25 542.009 116.997C542.009 106.744 533.375 98.4316 522.725 98.4316C512.075 98.4316 503.441 106.744 503.441 116.997C503.441 127.25 512.075 135.562 522.725 135.562Z" fill="#FBBEBE"/>
<path d="M645.156 218.148C644.597 213.083 642.727 208.234 639.717 204.045C640.217 206.909 640.718 209.771 641.221 212.632C640.596 212.806 639.933 212.801 639.311 212.617C638.69 212.433 638.138 212.079 637.723 211.597C636.911 210.621 636.29 209.511 635.89 208.321C633.699 203.085 630.834 198.135 627.362 193.586C615.086 192.601 602.95 187.702 592.154 181.99C581.355 176.282 571.249 169.438 560.593 163.488C558.746 162.413 556.822 161.467 554.834 160.656C551.5 159.369 547.758 158.702 544.597 157.189C544.385 157.088 544.172 156.981 543.963 156.871C543.249 156.497 542.573 156.06 541.943 155.565C541.603 155.299 541.28 155.013 540.976 154.709C539.399 152.943 538.149 150.929 537.279 148.756C535.583 145.143 534.978 140.785 533.285 137.173C534.063 136.473 534.938 135.879 535.884 135.408H535.887C536.024 135.338 536.161 135.272 536.302 135.209C536.972 134.906 537.669 134.66 538.384 134.476C538.789 134.372 539.198 134.287 539.61 134.221C539.626 134.22 539.643 134.217 539.659 134.212C541.568 133.912 543.525 134.061 545.362 134.646C548.049 135.521 550.314 137.267 552.573 138.919C556.242 141.408 559.761 144.095 563.113 146.968C564.976 148.686 566.676 150.574 568.68 152.135C570.345 153.372 572.1 154.492 573.932 155.486C584.774 161.704 595.616 167.921 606.46 174.136C610.131 176.241 613.804 178.347 617.393 180.574C622.845 183.96 628.101 187.629 633.353 191.295C636.449 193.453 639.543 195.613 642.636 197.774C643.651 198.397 644.542 199.19 645.267 200.115C645.908 201.165 646.306 202.336 646.434 203.548C647.21 208.444 646.772 213.447 645.156 218.148V218.148Z" fill="#FBBEBE"/>
<path d="M550.445 182.06C549.144 187.676 543.248 191.072 540.165 196.005C536.335 202.129 537.897 209.246 539.335 216.26C536.707 218.441 534.078 220.622 531.448 222.802C529.997 224.001 528.546 225.206 526.984 226.267C524.706 227.736 522.325 229.052 519.858 230.206C517.531 231.358 515.204 232.511 512.877 233.664C510.714 234.835 508.421 235.77 506.042 236.452C501.457 237.585 496.587 236.792 492.05 235.48C491.515 235.345 491.001 235.143 490.52 234.879C490.237 234.716 489.991 234.501 489.795 234.246C489.348 233.474 489.185 232.579 489.334 231.707C489.795 224.357 491.661 217.16 493.521 210.017C494.515 205.732 495.851 201.527 497.518 197.44C499.153 193.938 501.033 190.547 503.143 187.289C505.473 183.191 508.233 179.333 511.38 175.776C512.912 174.407 514.202 172.806 515.198 171.037C516.358 168.488 515.91 165.565 516.145 162.79C516.325 160.704 516.9 158.669 517.842 156.783V156.78C518.345 155.764 518.952 154.798 519.652 153.897C519.97 154.608 520.287 155.318 520.604 156.028C520.813 156.493 521.02 156.958 521.225 157.422C521.493 158.019 521.758 158.615 522.022 159.209C522.784 160.914 523.544 162.619 524.304 164.322C525.124 166.468 526.294 168.474 527.768 170.266C528.442 171.184 529.352 171.918 530.408 172.396C531.465 172.874 532.632 173.08 533.796 172.994C534.96 172.908 536.081 172.533 537.05 171.906C538.018 171.278 538.801 170.419 539.322 169.413C540.421 167.536 541.217 165.508 541.682 163.4C542.328 160.833 542.417 158.166 541.944 155.565C541.156 150.556 538.943 145.439 537.335 140.785C536.68 139.234 536.301 137.587 536.214 135.914C536.217 135.726 536.237 135.539 536.273 135.354C536.282 135.307 536.292 135.257 536.302 135.209C536.972 134.906 537.669 134.66 538.384 134.476C538.789 134.372 539.198 134.288 539.61 134.221C541.025 141.597 542.443 148.973 543.862 156.349C543.895 156.522 543.931 156.695 543.963 156.871C544.166 157.928 544.372 158.985 544.601 160.04C544.807 160.996 545.029 161.95 545.277 162.897L545.287 162.925C545.372 163.246 545.46 163.564 545.552 163.882L545.555 163.891C545.807 164.759 546.088 165.622 546.405 166.471C548.327 171.591 551.677 176.745 550.445 182.06Z" fill="#141E61"/>
<path d="M628.707 260.993C628.646 262.075 628.864 263.154 629.341 264.136C630.548 266.259 633.443 266.742 635.949 266.941C650.587 268.099 665.314 267.667 679.852 265.653C680.64 265.601 681.406 265.372 682.086 264.985C684.153 263.59 682.879 260.19 680.622 259.102C678.365 258.013 675.687 258.276 673.211 257.804C670.75 257.208 668.408 256.23 666.274 254.908C661.252 252.13 656.303 249.234 651.428 246.22C648.525 244.425 645.099 242.51 641.83 243.574C632.975 246.458 628.649 251.796 628.707 260.993Z" fill="#3F3D56"/>
<path d="M520.8 154.989V154.992C520.777 155.124 520.754 155.253 520.724 155.383C520.689 155.597 520.646 155.814 520.604 156.028C520.198 158.026 519.701 160.014 519.129 161.99C517.561 167.45 515.459 172.821 513.374 178.114C507.778 192.305 502.181 206.497 496.583 220.691C495.171 224.265 493.763 227.843 492.158 231.345C491.622 232.513 491.069 233.689 490.52 234.879C488.553 239.136 486.664 243.532 486.036 248.063C485.451 251.045 485.383 254.1 485.837 257.103C486.464 260.074 488.337 262.975 491.269 264.073C492.7 264.611 494.75 265.332 494.358 266.764C494.145 267.55 493.217 267.934 492.383 268.066C491.283 268.235 490.157 268.169 489.086 267.872C488.015 267.575 487.025 267.055 486.186 266.348C484.621 265.011 483.418 262.931 481.336 262.708C479.894 262.557 478.567 263.387 477.247 263.969C471.861 266.339 465.585 264.681 459.927 262.997C460.372 260.791 462.673 259.338 464.957 258.897C467.242 258.453 469.605 258.768 471.936 258.708C472.682 258.747 473.422 258.563 474.057 258.183C474.626 257.68 475.024 257.025 475.201 256.301C476.702 252.019 477.818 247.621 478.538 243.155C479.29 238.488 479.604 233.749 480.676 229.139C481.509 225.543 482.797 222.06 483.902 218.529C486.038 211.26 487.792 203.892 489.157 196.452C489.848 193.362 490.342 190.233 490.638 187.085C490.824 184.473 490.736 181.849 490.997 179.246C491.436 175.861 492.17 172.517 493.191 169.25C494.191 165.685 495.19 162.122 496.188 158.561C497.669 153.29 499.257 147.815 503.009 143.718C504.312 142.276 505.909 141.106 507.701 140.283C509.493 139.459 511.442 138.998 513.426 138.929C514.17 138.928 514.912 139.005 515.639 139.158C515.76 139.187 515.881 139.215 516.001 139.247C516.793 139.446 517.553 139.749 518.26 140.147C519.417 139.439 520.005 139.687 520.773 140.779C521.447 141.935 521.764 143.251 521.689 144.574C521.753 148.065 521.456 151.555 520.8 154.989Z" fill="#FBBEBE"/>
<path d="M522.071 159.162L522.022 159.209L521.757 159.464L519.13 161.99L517.842 156.783L513.426 138.929C514.17 138.928 514.912 139.005 515.639 139.158C515.67 138.954 515.722 138.753 515.792 138.557L516.002 139.247L517.499 144.149L520.332 153.457L520.8 154.989V154.992L522.071 159.162Z" fill="#141E61"/>
<path d="M538.747 102.203C538.744 103.856 538.404 105.493 537.744 107.019C537.085 108.545 536.119 109.932 534.903 111.099C534.462 111.523 533.99 111.917 533.49 112.275C531.235 113.912 528.487 114.798 525.663 114.799H509.982C506.517 114.794 503.196 113.465 500.748 111.105C498.299 108.744 496.924 105.545 496.924 102.209C496.924 98.8732 498.299 95.6738 500.748 93.3132C503.196 90.9527 506.517 89.6239 509.982 89.6188H525.663C529.128 89.6275 532.449 90.9557 534.9 93.3134C537.351 95.6712 538.734 98.8669 538.747 102.203V102.203Z" fill="#2F2E41"/>
<path d="M553.449 103.152C560.85 103.152 566.85 97.3755 566.85 90.2504C566.85 83.1253 560.85 77.3492 553.449 77.3492C546.048 77.3492 540.048 83.1253 540.048 90.2504C540.048 97.3755 546.048 103.152 553.449 103.152Z" fill="#2F2E41"/>
<path opacity="0.1" d="M553.122 77.3492C552.957 77.3492 552.794 77.3555 552.631 77.3612C556.098 77.4825 559.381 78.8936 561.788 81.2975C564.196 83.7015 565.542 86.9109 565.542 90.2504C565.542 93.59 564.196 96.7994 561.788 99.2033C559.381 101.607 556.098 103.018 552.631 103.14C552.794 103.145 552.957 103.152 553.122 103.152C556.676 103.152 560.084 101.792 562.597 99.3729C565.111 96.9535 566.523 93.672 566.523 90.2504C566.523 86.8288 565.111 83.5474 562.597 81.1279C560.084 78.7085 556.676 77.3492 553.122 77.3492V77.3492Z" fill="black"/>
<path opacity="0.1" d="M489.386 77.3492C489.551 77.3492 489.714 77.3555 489.877 77.3612C486.41 77.4825 483.127 78.8936 480.72 81.2975C478.312 83.7015 476.966 86.9109 476.966 90.2504C476.966 93.59 478.312 96.7994 480.72 99.2033C483.127 101.607 486.41 103.018 489.877 103.14C489.713 103.145 489.551 103.152 489.386 103.152C485.834 103.149 482.429 101.788 479.918 99.3689C477.408 96.9498 475.997 93.6701 475.997 90.2504C475.997 86.8308 477.408 83.551 479.918 81.1319C482.429 78.7128 485.834 77.3523 489.386 77.3492Z" fill="black"/>
<path opacity="0.1" d="M533.49 112.275C531.235 113.912 528.487 114.798 525.663 114.799H509.982C507.158 114.798 504.41 113.912 502.155 112.275H533.49Z" fill="black"/>
<path d="M634.75 205.756C634.75 205.756 638.129 215.128 641.221 212.632L638.756 200.382L634.75 205.756Z" fill="#FBBEBE"/>
<path d="M1045.86 491.55C1049 492.651 1052.37 493.033 1055.7 492.667C1059.02 492.301 1062.22 491.196 1065.02 489.439C1067.83 487.683 1070.18 485.322 1071.87 482.544C1073.57 479.766 1074.58 476.647 1074.81 473.431C1075.04 470.216 1074.49 466.992 1073.21 464.015C1071.93 461.038 1069.94 458.388 1067.42 456.275C1064.89 454.161 1061.89 452.642 1058.64 451.837C1055.4 451.032 1052.01 450.962 1048.74 451.634L1049.28 462.347L1044.01 453.166C1038.85 455.503 1034.85 459.72 1032.91 464.889C1032.23 466.699 1031.81 468.595 1031.67 470.519C1031.34 475.032 1032.54 479.527 1035.1 483.322C1037.66 487.117 1041.44 490.006 1045.86 491.55V491.55Z" fill="#57B894"/>
<path d="M1071.9 615.793C1070.05 606.683 1078.1 598.606 1086.05 593.357C1094.01 588.107 1103.3 582.949 1106.01 574.04C1109.92 561.236 1098.3 549.51 1089.25 539.398C1082.55 531.894 1076.78 523.651 1072.09 514.841C1070.21 511.308 1068.48 507.615 1067.99 503.674C1067.27 497.999 1069.17 492.351 1071.07 486.938C1077.43 468.903 1084.23 451.02 1091.46 433.288" stroke="#3F3D56" stroke-miterlimit="10"/>
<path d="M1046.75 488.792C1049.89 489.893 1053.26 490.276 1056.59 489.909C1059.91 489.543 1063.11 488.438 1065.91 486.682C1068.72 484.925 1071.07 482.564 1072.76 479.786C1074.46 477.008 1075.47 473.889 1075.7 470.673C1075.93 467.458 1075.38 464.234 1074.1 461.257C1072.82 458.28 1070.83 455.63 1068.31 453.517C1065.78 451.403 1062.78 449.884 1059.53 449.079C1056.29 448.274 1052.9 448.204 1049.63 448.876L1050.17 459.589L1044.9 450.408C1039.74 452.745 1035.74 456.962 1033.8 462.131C1033.12 463.941 1032.7 465.837 1032.56 467.761C1032.23 472.274 1033.43 476.769 1035.99 480.564C1038.55 484.359 1042.33 487.248 1046.75 488.792V488.792Z" stroke="#3F3D56" stroke-miterlimit="10"/>
<path d="M1069.26 429.588C1070.5 426.308 1072.57 423.38 1075.29 421.073C1078.01 418.767 1081.29 417.157 1084.82 416.391L1086.6 426.574L1089.9 415.879C1094.48 415.944 1098.93 417.41 1102.59 420.064C1106.25 422.718 1108.94 426.423 1110.27 430.645C1111.6 434.866 1111.5 439.386 1109.99 443.551C1108.48 447.715 1105.63 451.31 1101.86 453.815C1098.09 456.32 1093.58 457.607 1089 457.489C1084.42 457.371 1080 455.854 1076.37 453.158C1072.74 450.462 1070.1 446.726 1068.82 442.49C1067.55 438.253 1067.7 433.735 1069.26 429.588H1069.26Z" fill="#57B894"/>
<path d="M1070.45 425.911C1071.68 422.631 1073.76 419.703 1076.48 417.396C1079.2 415.09 1082.47 413.479 1086.01 412.713L1087.79 422.897L1091.09 412.201C1095.67 412.267 1100.11 413.732 1103.77 416.387C1107.43 419.041 1110.12 422.746 1111.45 426.968C1112.78 431.189 1112.69 435.709 1111.18 439.873C1109.66 444.038 1106.82 447.633 1103.04 450.138C1099.27 452.643 1094.77 453.93 1090.19 453.812C1085.61 453.694 1081.19 452.177 1077.56 449.481C1073.93 446.785 1071.29 443.049 1070.01 438.813C1068.73 434.576 1068.89 430.058 1070.45 425.911H1070.45Z" stroke="#3F3D56" stroke-miterlimit="10"/>
<path d="M1085.46 539.604C1090.45 541.347 1095.93 541.261 1100.86 539.363C1105.79 537.464 1109.82 533.886 1112.18 529.311C1114.55 524.736 1115.08 519.482 1113.68 514.553C1112.28 509.623 1109.05 505.362 1104.59 502.582L1102.06 510.801L1100.26 500.497C1100.24 500.489 1100.22 500.482 1100.2 500.477C1097.53 499.543 1094.7 499.125 1091.86 499.246C1089.03 499.367 1086.24 500.025 1083.67 501.182C1081.1 502.339 1078.78 503.973 1076.87 505.991C1074.95 508.008 1073.47 510.369 1072.5 512.94C1071.53 515.51 1071.1 518.238 1071.22 520.97C1071.35 523.701 1072.04 526.381 1073.24 528.857C1074.44 531.334 1076.14 533.557 1078.24 535.401C1080.34 537.245 1082.79 538.674 1085.46 539.604H1085.46Z" fill="#57B894"/>
<path d="M1086.49 535.88C1091.48 537.622 1096.96 537.536 1101.89 535.638C1106.82 533.74 1110.85 530.162 1113.21 525.586C1115.58 521.011 1116.11 515.758 1114.71 510.828C1113.31 505.899 1110.07 501.638 1105.62 498.857L1103.08 507.076L1101.29 496.772C1101.27 496.764 1101.25 496.758 1101.23 496.752C1098.56 495.818 1095.73 495.4 1092.89 495.521C1090.05 495.642 1087.27 496.3 1084.7 497.457C1082.12 498.615 1079.81 500.249 1077.9 502.266C1075.98 504.284 1074.49 506.645 1073.53 509.215C1072.56 511.785 1072.12 514.514 1072.25 517.245C1072.38 519.976 1073.06 522.656 1074.27 525.133C1075.47 527.609 1077.17 529.833 1079.27 531.677C1081.36 533.521 1083.82 534.949 1086.49 535.88H1086.49Z" stroke="#3F3D56" stroke-miterlimit="10"/>
<path d="M1062.95 574.167C1063.81 578.867 1066.32 583.14 1070.06 586.27C1073.81 589.4 1078.55 591.195 1083.51 591.356C1088.46 591.517 1093.32 590.032 1097.27 587.152C1101.23 584.272 1104.03 580.171 1105.22 575.537C1106.4 570.903 1105.89 566.018 1103.78 561.701C1101.67 557.384 1098.08 553.897 1093.61 551.826C1089.15 549.755 1084.08 549.225 1079.25 550.326C1074.43 551.426 1070.14 554.089 1067.12 557.87L1076.75 571.826L1063.59 564.418C1062.57 567.572 1062.35 570.915 1062.95 574.167V574.167Z" fill="#57B894"/>
<path d="M1063.84 571.409C1064.7 576.109 1067.21 580.382 1070.95 583.512C1074.7 586.642 1079.44 588.437 1084.4 588.598C1089.35 588.759 1094.21 587.274 1098.16 584.394C1102.12 581.514 1104.92 577.413 1106.11 572.779C1107.29 568.145 1106.78 563.26 1104.67 558.943C1102.56 554.626 1098.97 551.139 1094.5 549.068C1090.04 546.997 1084.97 546.467 1080.14 547.568C1075.32 548.668 1071.04 551.332 1068.01 555.112L1077.64 569.068L1064.48 561.661C1063.46 564.814 1063.24 568.157 1063.84 571.409V571.409Z" stroke="#3F3D56" stroke-miterlimit="10"/>
<path d="M9.35552 542.249C11.4229 542.972 13.6366 543.224 15.8221 542.983C18.0076 542.743 20.1052 542.017 21.9495 540.862C23.7939 539.708 25.3346 538.157 26.4502 536.332C27.5658 534.507 28.2257 532.457 28.3781 530.345C28.5305 528.232 28.1711 526.114 27.3283 524.158C26.4854 522.202 25.1821 520.461 23.5212 519.073C21.8602 517.684 19.887 516.686 17.757 516.157C15.627 515.628 13.3984 515.582 11.247 516.024L11.6026 523.062L8.14374 517.03C4.7491 518.566 2.1266 521.336 0.852547 524.732C0.400076 525.922 0.125006 527.167 0.0355458 528.431C-0.182777 531.397 0.608949 534.35 2.29075 536.843C3.97254 539.337 6.45274 541.234 9.35552 542.249V542.249Z" fill="#57B894"/>
<path d="M26.47 623.879C25.249 617.893 30.5397 612.587 35.7657 609.138C40.9917 605.688 47.098 602.3 48.8811 596.446C51.4437 588.034 43.8104 580.33 37.8691 573.686C33.4613 568.755 29.6759 563.34 26.5924 557.551C25.2518 555.278 24.3387 552.794 23.8952 550.215C23.4267 546.486 24.6711 542.775 25.9247 539.218C30.1011 527.37 34.5663 515.62 39.3204 503.969" stroke="#3F3D56" stroke-miterlimit="10"/>
<path d="M9.93537 540.437C12.0027 541.16 14.2164 541.412 16.4019 541.171C18.5874 540.931 20.685 540.205 22.5294 539.05C24.3737 537.896 25.9144 536.345 27.03 534.52C28.1456 532.695 28.8056 530.645 28.9579 528.533C29.1103 526.42 28.7509 524.302 27.9081 522.346C27.0652 520.39 25.7619 518.649 24.101 517.261C22.44 515.872 20.4668 514.874 18.3368 514.345C16.2068 513.816 13.9783 513.77 11.8269 514.212L12.1824 521.25L8.72358 515.218C5.32894 516.754 2.70644 519.524 1.43238 522.92C0.979915 524.11 0.70485 525.355 0.615384 526.619C0.397047 529.585 1.18877 532.538 2.87057 535.031C4.55237 537.525 7.03258 539.422 9.93537 540.437V540.437Z" stroke="#3F3D56" stroke-miterlimit="10"/>
<path d="M24.7339 501.539C25.5452 499.384 26.9069 497.46 28.6935 495.945C30.4801 494.429 32.6342 493.371 34.9572 492.868L36.1266 499.559L38.2948 492.531C41.3053 492.574 44.2236 493.537 46.6285 495.281C49.0334 497.025 50.8005 499.459 51.6746 502.233C52.5486 505.007 52.4845 507.976 51.4914 510.712C50.4983 513.449 48.6276 515.81 46.1494 517.456C43.6713 519.102 40.7139 519.948 37.7042 519.87C34.6945 519.793 31.7883 518.796 29.4052 517.025C27.022 515.254 25.2853 512.799 24.4456 510.016C23.606 507.232 23.707 504.264 24.7339 501.539V501.539Z" fill="#57B894"/>
<path d="M25.5138 499.123C26.3251 496.968 27.6868 495.044 29.4734 493.529C31.26 492.013 33.4141 490.955 35.7371 490.452L36.9065 497.143L39.0747 490.115C42.0852 490.158 45.0035 491.121 47.4084 492.865C49.8133 494.609 51.5804 497.043 52.4545 499.817C53.3285 502.591 53.2644 505.56 52.2713 508.296C51.2782 511.033 49.4075 513.394 46.9293 515.04C44.4512 516.686 41.4938 517.532 38.4841 517.454C35.4744 517.377 32.5682 516.38 30.1851 514.609C27.8019 512.838 26.0652 510.383 25.2255 507.599C24.3859 504.816 24.4869 501.848 25.5138 499.123V499.123Z" stroke="#3F3D56" stroke-miterlimit="10"/>
<path d="M35.3758 573.822C38.6544 574.967 42.2561 574.91 45.4942 573.663C48.7323 572.416 51.3805 570.065 52.934 567.059C54.4876 564.052 54.8377 560.601 53.9178 557.362C52.998 554.124 50.8723 551.324 47.9461 549.497L46.2801 554.897L45.0987 548.127C45.087 548.122 45.0749 548.118 45.0625 548.114C43.3088 547.5 41.4466 547.225 39.5824 547.304C37.7181 547.384 35.8883 547.816 34.1977 548.576C32.507 549.336 30.9885 550.41 29.729 551.736C28.4695 553.061 27.4937 554.613 26.8573 556.302C26.221 557.99 25.9365 559.783 26.0203 561.578C26.104 563.373 26.5543 565.134 27.3454 566.761C28.1365 568.388 29.2529 569.849 30.6308 571.061C32.0087 572.272 33.6211 573.21 35.3758 573.822V573.822Z" fill="#57B894"/>
<path d="M36.0516 571.374C39.3302 572.519 42.9319 572.463 46.17 571.216C49.4081 569.968 52.0563 567.618 53.6098 564.611C55.1634 561.605 55.5135 558.154 54.5936 554.915C53.6738 551.676 51.5481 548.877 48.6219 547.05L46.9559 552.45L45.7745 545.68C45.7628 545.675 45.7507 545.671 45.7383 545.667C43.985 545.055 42.1235 544.781 40.2603 544.861C38.397 544.941 36.5684 545.374 34.8788 546.135C31.4666 547.671 28.828 550.449 27.5435 553.858C26.259 557.267 26.4337 561.028 28.0293 564.313C29.6248 567.598 32.5106 570.138 36.0516 571.374V571.374Z" stroke="#3F3D56" stroke-miterlimit="10"/>
<path d="M20.5889 596.53C21.1527 599.618 22.8022 602.426 25.2609 604.482C27.7196 606.538 30.838 607.718 34.093 607.823C37.348 607.929 40.5417 606.954 43.1386 605.061C45.7354 603.169 47.5774 600.475 48.3556 597.43C49.1339 594.385 48.801 591.176 47.413 588.339C46.0249 585.503 43.6659 583.212 40.7318 581.852C37.7976 580.491 34.4667 580.143 31.2976 580.866C28.1285 581.589 25.3139 583.339 23.326 585.822L29.6542 594.992L21.0075 590.125C20.337 592.197 20.1935 594.393 20.5889 596.53V596.53Z" fill="#57B894"/>
<path d="M21.1739 594.718C21.7376 597.806 23.3872 600.613 25.8459 602.67C28.3046 604.726 31.4229 605.906 34.678 606.011C37.933 606.117 41.1267 605.142 43.7235 603.249C46.3204 601.357 48.1623 598.663 48.9406 595.618C49.7188 592.573 49.386 589.364 47.9979 586.527C46.6098 583.691 44.2509 581.4 41.3167 580.039C38.3826 578.679 35.0516 578.331 31.8825 579.054C28.7134 579.777 25.8989 581.527 23.9109 584.01L30.2392 593.18L21.5924 588.313C20.922 590.385 20.7784 592.581 21.1739 594.718V594.718Z" stroke="#3F3D56" stroke-miterlimit="10"/>
<path d="M499.571 413.115C509.323 413.115 517.229 403.266 517.229 391.115C517.229 378.965 509.323 369.115 499.571 369.115C489.818 369.115 481.913 378.965 481.913 391.115C481.913 403.266 489.818 413.115 499.571 413.115Z" fill="#2F2E41"/>
<path d="M595.653 414.615C605.406 414.615 613.312 404.766 613.312 392.615C613.312 380.465 605.406 370.615 595.653 370.615C585.901 370.615 577.995 380.465 577.995 392.615C577.995 404.766 585.901 414.615 595.653 414.615Z" fill="#2F2E41"/>
<path d="M582.15 459.616C582.15 469.556 567.732 477.616 549.949 477.616C532.166 477.616 517.749 469.556 517.749 459.616C517.749 451.006 528.562 443.805 543.011 442.045C545.311 441.753 547.629 441.61 549.949 441.615C553.837 441.603 557.715 442.006 561.51 442.816C573.58 445.406 582.15 451.956 582.15 459.616Z" fill="#2F2E41"/>
<path d="M503.726 408.115C513.478 408.115 521.384 398.266 521.384 386.115C521.384 373.965 513.478 364.115 503.726 364.115C493.973 364.115 486.067 373.965 486.067 386.115C486.067 398.266 493.973 408.115 503.726 408.115Z" stroke="#3F3D56" stroke-miterlimit="10"/>
<path d="M599.808 408.615C609.561 408.615 617.466 398.766 617.466 386.615C617.466 374.465 609.561 364.615 599.808 364.615C590.056 364.615 582.15 374.465 582.15 386.615C582.15 398.766 590.056 408.615 599.808 408.615Z" stroke="#3F3D56" stroke-miterlimit="10"/>
<path d="M554.104 469.615C571.888 469.615 586.305 461.557 586.305 451.615C586.305 441.674 571.888 433.615 554.104 433.615C536.32 433.615 521.904 441.674 521.904 451.615C521.904 461.557 536.32 469.615 554.104 469.615Z" stroke="#3F3D56" stroke-miterlimit="10"/>
<path d="M561.894 441.315C561.903 442.573 561.412 443.786 560.523 444.707C560.103 445.149 559.593 445.502 559.025 445.744C558.456 445.986 557.842 446.113 557.22 446.115H546.833C545.553 446.073 544.343 445.544 543.467 444.644C542.591 443.745 542.121 442.548 542.159 441.315C542.153 440.341 542.45 439.386 543.01 438.574C545.309 438.263 547.628 438.109 549.949 438.115C553.842 438.103 557.722 438.533 561.51 439.396C561.766 440.005 561.897 440.658 561.894 441.315V441.315Z" fill="white"/>
<path d="M503.726 385.115C506.594 385.115 508.919 382.877 508.919 380.115C508.919 377.354 506.594 375.115 503.726 375.115C500.857 375.115 498.532 377.354 498.532 380.115C498.532 382.877 500.857 385.115 503.726 385.115Z" fill="white"/>
<path d="M600.327 385.115C603.196 385.115 605.521 382.877 605.521 380.115C605.521 377.354 603.196 375.115 600.327 375.115C597.459 375.115 595.134 377.354 595.134 380.115C595.134 382.877 597.459 385.115 600.327 385.115Z" fill="white"/>
<path opacity="0.3" d="M605.521 432.115C608.389 432.115 610.715 429.877 610.715 427.115C610.715 424.354 608.389 422.115 605.521 422.115C602.652 422.115 600.327 424.354 600.327 427.115C600.327 429.877 602.652 432.115 605.521 432.115Z" fill="#141E61"/>
<path opacity="0.3" d="M478.796 456.115C481.665 456.115 483.99 453.877 483.99 451.115C483.99 448.354 481.665 446.115 478.796 446.115C475.928 446.115 473.603 448.354 473.603 451.115C473.603 453.877 475.928 456.115 478.796 456.115Z" fill="#141E61"/>
</g>
</svg>
